<svg width="11" height="10" viewBox="0 0 11 10" fill="none" xmlns="http://www.w3.org/2000/svg">
<path d="M5.59998 6.06464L1.87374 9.79087C1.73432 9.93029 1.55688 10 1.34142 10C1.12596 10 0.948518 9.93029 0.809101 9.79087C0.669684 9.65146 0.599976 9.47402 0.599976 9.25856C0.599976 9.04309 0.669684 8.86565 0.809101 8.72624L4.53534 5L0.809101 1.27376C0.669684 1.13435 0.599976 0.956907 0.599976 0.741445C0.599976 0.525982 0.669684 0.348542 0.809101 0.209125C0.948518 0.0697082 1.12596 0 1.34142 0C1.55688 0 1.73432 0.0697082 1.87374 0.209125L5.59998 3.93536L9.32621 0.209125C9.46563 0.0697082 9.64307 0 9.85853 0C10.074 0 10.2514 0.0697082 10.3908 0.209125C10.5303 0.348542 10.6 0.525982 10.6 0.741445C10.6 0.956907 10.5303 1.13435 10.3908 1.27376L6.66461 5L10.3908 8.72624C10.5303 8.86565 10.6 9.04309 10.6 9.25856C10.6 9.47402 10.5303 9.65146 10.3908 9.79087C10.2514 9.93029 10.074 10 9.85853 10C9.64307 10 9.46563 9.93029 9.32621 9.79087L5.59998 6.06464Z" fill="#1DA1F2"/>
</svg>
